<svg xmlns="http://www.w3.org/2000/svg" xmlns:xlink="http://www.w3.org/1999/xlink" width="55" height="31" viewBox="0 0 55 31"><defs><path id="c3isa" d="M369.81 5307.68c-.25.37-.7.39-1.55.39-2.99 0-11.97-.71-15.79-1.3-1.95-.31-3.27-1.34-4.69-2.44-2.12-1.64-4.54-3.5-9.88-3.31-1.94.08-4.29 1.06-6.43 2.13-.65.59-1.28 1.25-1.9 1.91-.9.95-1.77 1.86-2.57 2.37a9.9 9.9 0 0 1-5.26 1.57c-.68 0-1.1-.1-1.15-.1l-.12-.02-.08-.1c-.52-.69-.7-1.3-.77-1.93-1.12-.1-2.37-.27-3.77-.52-.42-.07-.75-.36-.82-.73-.05-.25-.2-.83 1.35-1.96.1-.46.22-1 .32-1.54 1.47-7.24 4.22-20.75 18.96-23.59 1.74-.34 3.49-.51 5.19-.51 10.37 0 17.76 6.53 20.92 12.14 1.98 3.49 2.85 7.48 3.42 10.13.28 1.17.55 2.52.78 2.78l.07.08c.27.36 1.12 1.07 1.87 1.69 1.75 1.46 2.47 2.08 1.9 2.86zm-2.17-1.18c-.25-.22-.5-.44-.73-.61a16.75 16.75 0 0 1-2.07-1.88c-.47-.49-.7-1.44-1.14-3.5-.55-2.54-1.4-6.41-3.27-9.71-2.97-5.26-9.88-11.38-19.61-11.38-1.6 0-3.24.17-4.91.49-13.75 2.67-16.37 15.54-17.76 22.43-.13.67-.25 1.3-.38 1.84l-.05.27-.22.17-.48.37c1.8.29 3.3.44 4.57.44h.3c.92-.03 1.74-.12 2.44-.3.7-.17 1.97-.88 3.45-1.68l.27-.15c2.99-1.66 6.66-3.65 9.85-3.77.3-.02.58-.02.85-.02 5.31 0 7.91 2.03 10 3.64 1.33 1.01 2.45 1.89 4.02 2.13 3.49.56 11.45 1.18 14.87 1.22z"/><path id="c3isb" d="M341.01 5286.5h.19c8.08.1 11.85 6 13.1 8.53 1.58 3.2 2.25 7.3 2.27 7.35.08.37.36.62.72.62h.12a.74.74 0 0 0 .58-.87c-.03-.18-.72-4.35-2.42-7.78-1.37-2.77-5.49-9.25-14.37-9.35h-.21c-6.95 0-11.85 3.78-14.94 11.58-.14.37.03.82.39.97a.7.7 0 0 0 .93-.4c2.88-7.15 7.34-10.65 13.64-10.65z"/></defs><g><g transform="translate(-315 -5278)"><use xlink:href="#c3isa"/></g><g transform="translate(-315 -5278)"><use fill="#b2b1b2" xlink:href="#c3isb"/></g></g></svg>