<svg width="161" height="54" viewBox="0 0 161 54" fill="none" xmlns="http://www.w3.org/2000/svg">
<path d="M41.3807 20.7417C41.3807 20.7417 40.0591 20.8928 40.0591 22.1189C40.0591 23.0915 40.785 23.6542 41.2852 23.7063C41.834 23.7636 42.8743 23.3919 42.8743 22.171C42.8743 20.7469 41.3807 20.7417 41.3807 20.7417Z" fill="#A09744"/>
<path d="M54.1183 18.621C53.3629 14.2775 51.1016 10.5192 50.9158 10.2257C47.8036 5.44622 42.8661 3.25969 42.3607 3.07386C41.8553 2.88282 40.228 1.81126 39.4812 1.50907C38.7344 1.20861 36.6799 0.915106 36.3273 0.939421C35.9817 0.963735 33.4721 0.930737 33.0987 0.930737C32.7236 0.927264 30.9574 0.930737 30.6065 0.967208C28.2602 1.25724 25.9903 2.21418 25.3512 2.40869C24.7052 2.59105 24.4707 2.57889 24.271 2.66225C19.6756 4.65775 16.9941 7.99921 16.9941 7.99921C16.9941 7.99921 15.1601 10.5418 15.0316 10.7589C12.2389 15.5435 12.1712 19.8836 12.1139 20.712C12.0583 21.5439 12.159 23.4717 12.159 23.7409C12.159 24.0066 12.2337 26.2314 12.2893 26.9834C12.3379 27.7336 12.5429 28.1122 12.9458 28.463C13.347 28.8069 14.224 29.5641 14.224 29.5641C14.224 29.5641 14.4151 29.3418 14.4967 29.1317C14.5748 28.9181 14.6634 28.4422 14.6096 28.1973C14.5488 27.9559 14.58 27.6589 14.58 27.6589L14.9204 27.6086L14.7989 27.2595C14.6912 27.0685 14.7989 26.8548 14.7659 26.7228C14.7433 26.5891 14.4776 25.884 14.323 25.0643C14.1615 24.2289 14.3265 23.8329 15.0194 23.3779C15.7159 22.9212 16.9993 22.9802 16.9993 22.9802C16.9993 22.9802 17.0271 22.9003 17.0271 22.711C17.0271 22.5252 16.7909 22.2282 16.6329 22.1952C16.4661 22.1761 16.414 22.1448 16.1778 22.0337C15.9399 21.9295 16.1223 21.768 16.1223 21.768C16.3654 21.768 16.3116 21.5856 16.3116 21.5856L16.3359 21.1254C16.3359 21.1254 16.0476 21.1532 15.8027 21.0455C14.8874 20.6339 14.6877 19.109 14.7155 18.6297C14.7468 18.1452 15.0455 16.6377 15.0976 16.3529C15.8096 12.5772 17.4925 10.4914 18.0031 10.0103C18.512 9.52405 19.1476 9.9565 19.4759 10.0624C19.7902 10.1771 20.0264 10.1771 20.0264 10.1771C20.0264 10.1771 20.082 9.96345 20.3286 9.77241C20.5665 9.59179 21.2873 9.35386 21.5617 9.21839C21.8257 9.08466 21.7475 8.92488 21.5877 8.78768C21.4332 8.65222 21.1084 8.38997 20.8357 8.30314C20.5787 8.21977 20.6534 8.03742 20.761 7.8759L21.6954 6.85818C23.1213 5.47575 24.1859 5.04851 24.9674 4.67164C25.742 4.29477 26.7111 4.00995 26.7111 4.00995L26.7198 4.89394L26.322 5.75015C25.5197 7.59629 23.9653 9.4129 23.9653 9.4129L23.0813 9.44069C22.9511 9.44069 22.305 9.35386 21.7458 9.64215C21.1848 9.93913 21.3429 10.6078 21.3429 10.6078L21.6086 10.8527L21.4783 11.0402C21.4783 11.0402 22.1973 11.0159 22.5186 11.1462C22.833 11.2816 23.1004 11.9537 23.0692 12.2195C23.0466 12.4939 22.7965 13.7443 22.371 15.1111C21.9351 16.4814 21.8482 17.8152 21.8708 18.5168C21.8986 19.2098 21.9264 19.6387 21.7076 20.1789C21.4957 20.7068 20.7228 20.95 20.1324 20.9239C19.5401 20.8892 18.4738 20.9118 18.1039 20.9673C17.7287 21.0177 18.0222 21.1289 18.0222 21.1289L18.05 21.3998L18.2845 21.827L18.0431 22.3064L17.9146 22.52C18.4408 22.5512 18.6596 23.0115 18.6596 23.0115C18.6596 23.0115 18.9496 22.9524 19.3248 23.0115C19.6964 23.0636 20.8774 23.4352 21.2456 23.7079C21.6207 23.9771 21.8066 24.3505 21.7683 24.5485C21.7458 24.7274 21.7996 25.4064 21.7649 25.6704C21.5547 27.8865 22.2407 28.9372 22.5325 29.4756C22.8225 30.007 23.0396 30.9222 23.1108 31.702C23.1925 32.4766 22.661 32.5843 21.883 33.0897C21.1067 33.5985 18.9635 34.6614 18.9635 34.6614C18.9635 34.6614 18.5398 34.6614 17.6141 33.5621C16.6745 32.4558 16.0406 30.4447 16.0181 30.1998C15.9937 29.9618 16.0424 29.5884 15.537 29.8785C15.0299 30.172 15.2747 30.6357 15.3737 31.082C15.4762 31.5457 15.3737 31.702 15.2122 31.7559C15.049 31.8062 14.4654 30.9987 14.198 30.8163C13.9236 30.627 14.0208 31.0299 14.0382 31.2418C14.1163 32.6954 14.9882 33.7844 15.174 34.0067C19.5141 39.1057 25.94 41.5979 27.2008 42.0529C28.453 42.5166 29.2762 42.4611 29.6826 42.4645L31.567 42.475L31.5861 42.5062L32.2929 42.6243L32.7636 42.3881L32.8382 41.8532C32.6854 41.4069 32.4423 40.7035 32.1192 39.8143C31.3047 37.5722 32.2234 34.4287 32.3659 33.9685C32.7879 32.3672 33.6701 30.3387 35.261 27.7388C36.9439 24.9896 37.5031 22.4887 36.9282 20.3056C36.6278 19.1664 36.0616 18.3102 35.5197 17.711C35.5475 17.7214 35.5736 17.7301 35.6031 17.7422C36.2874 18.0045 37.2252 18.3623 38.8126 18.1243C39.3596 18.0444 39.9328 17.9263 40.4868 17.8134C43.7605 17.1483 46.8501 16.5231 48.6233 21.2852C49.0002 22.2994 49.1965 23.3935 49.4049 24.5519C49.78 26.6534 50.2645 29.0657 51.9249 31.115L52.6578 29.5554C52.92 28.9893 53.0346 28.6471 53.0728 28.5603C54.2364 26.0091 54.1305 24.1403 53.9985 23.7878C53.8683 23.4439 54.1305 23.2286 54.3719 22.6693C54.6133 22.1066 54.1548 18.8312 54.1183 18.621ZM26.23 10.0468C26.3967 9.29828 27.4926 6.10792 29.6948 3.67476C29.8841 3.46462 30.4693 3.0617 30.9817 3.03217C31.4836 3.01307 31.5635 3.68171 31.666 3.89706C31.7736 4.10721 31.9404 5.02594 31.8223 5.34723C31.7181 5.66679 31.5791 6.2538 31.527 6.71403C31.4732 7.16732 31.6347 7.45735 31.7615 7.78212C31.9004 8.09994 32.0289 8.50807 32.2373 8.47855C32.4544 8.4525 32.7236 8.21109 32.939 8.05131C33.1613 7.89848 33.6649 7.52335 33.717 6.89986C33.7709 6.28159 33.6389 5.93424 33.5607 5.59211C33.4791 5.23955 33.4791 4.97383 33.46 4.53965C33.4339 4.11589 33.5833 3.95611 33.5833 3.95611C33.5833 3.95611 33.5833 3.63656 33.8316 3.25969C34.0713 2.88282 34.4273 2.83245 34.6097 2.88282C34.7955 2.9436 35.4642 3.12943 36.3951 4.71333C36.5166 4.93042 37.1123 6.05929 37.7723 7.74738C37.8869 8.03915 38.0884 9.03082 38.4374 9.597C38.7865 10.1632 39.0991 10.9117 39.0991 10.9117C39.0991 10.9117 37.7671 11.4675 36.4037 11.6533C36.0685 11.7002 35.0387 11.8148 34.5819 11.5387C34.1356 11.2729 34.1026 10.8422 34.1356 10.6842L34.0018 10.0103C34.0018 9.85056 33.7413 9.05167 33.3679 8.6748C32.9876 8.29793 32.9876 8.50807 33.0727 8.69911C33.1508 8.88841 33.3054 9.96171 32.906 9.98255L32.7184 9.79325C32.5847 9.63868 32.3485 9.63868 32.1036 9.60568C31.8674 9.57963 31.8084 9.76546 31.8344 9.97908C31.8587 10.1927 31.8275 10.9725 31.8275 10.9725C31.8275 10.9725 31.8275 11.8044 30.7281 11.8235C29.6461 11.8513 28.71 11.391 27.8017 11.1983C26.8934 11.009 26.4592 10.7988 26.4592 10.7988C26.4592 10.7988 26.0685 10.7867 26.23 10.0468ZM38.0224 5.73799C38.0224 5.73799 39.2711 7.16384 39.6688 8.3674C40.0682 9.57616 40.3339 9.84361 40.3339 9.84361C40.3339 9.84361 39.7521 9.95824 38.9515 8.33613C38.5486 7.5355 38.401 6.72793 38.262 6.39969C38.1248 6.08708 38.0224 5.73799 38.0224 5.73799ZM22.899 29.255C22.694 28.8503 22.6228 28.2616 22.4561 27.8569C22.2928 27.454 22.1556 26.8601 22.1556 26.8601C22.1556 26.8601 22.0167 26.2921 22.4387 26.2921C22.8625 26.2921 22.8416 26.4154 23.0327 26.6742C23.2098 26.9347 23.3314 27.2717 23.4252 27.3672V27.883L23.3019 28.3606C23.3783 28.5273 23.3245 28.4769 23.4234 28.7652C23.5138 29.0501 23.6093 29.3991 23.7013 29.6458C23.7986 29.8872 23.8542 30.2119 23.8385 30.429C23.8125 30.6357 23.743 30.9483 23.7187 31.2765C23.6944 31.6048 23.5745 31.9817 23.5745 31.9817C23.5745 31.9817 23.4426 31.7715 23.4426 31.4137C23.4426 31.0664 23.3922 30.7069 23.248 30.4203C23.1126 30.1338 23.1126 29.6544 22.899 29.255ZM26.9299 39.6945C26.6781 39.6476 26.1987 39.6232 25.5648 39.4096C24.9292 39.1925 23.7934 38.4787 22.6176 37.6903C21.4384 36.9053 20.6638 36.313 20.6638 36.313C20.6638 36.313 20.1115 36.1706 20.5856 35.8615C21.0667 35.5558 22.9354 34.5468 23.2428 34.3992C23.5468 34.262 24.1181 33.9511 24.7989 34.8507C25.4797 35.7573 26.4228 37.7927 26.6972 38.4197C26.9837 39.0328 27.2894 39.651 27.2894 39.651C27.2894 39.651 27.2008 39.7413 26.9299 39.6945ZM30.9747 33.4613C30.0925 36.0751 30.3426 39.427 30.4363 40.37C30.4016 40.377 30.3704 40.3909 30.3356 40.3944C30.0265 40.4291 29.2536 40.1529 28.3749 38.3745C28.1595 37.9108 27.5343 36.5683 26.9976 35.2415C26.4523 33.9077 26.1241 33.51 26.1241 33.51C26.1241 33.51 25.9869 33.3398 26.2248 33.2217C26.454 33.0984 27.7149 32.5635 27.9928 32.421C28.2828 32.2821 28.8542 32.0181 29.179 32.0008C29.5141 31.9782 30.2123 32.0008 30.5492 32.0285C30.8775 32.0529 30.8723 31.8913 31.1692 32.1571C31.1727 32.1605 31.2856 32.2231 31.4054 32.2891C31.2526 32.6798 31.1067 33.0723 30.9747 33.4613ZM31.3898 29.6666C30.9817 29.6822 30.5093 29.7777 29.9449 29.849C28.809 29.9844 28.4061 30.3908 27.6993 30.6496C26.9889 30.9066 26.2786 31.2366 25.9417 31.2366L25.3078 31.2279C25.3078 31.2279 25.1636 30.8997 24.9518 30.4273C24.7364 29.9479 24.5297 29.2185 24.1772 28.2651C23.8316 27.3151 23.6631 27.2717 23.6857 26.6985C23.7187 26.1358 23.6423 25.7746 23.6735 25.3995C23.6892 25.0191 23.8125 24.8802 23.6979 24.6353C23.5745 24.3974 23.5294 24.255 23.4373 24.1907L23.2741 23.9562L23.3245 23.6211C23.4686 23.4734 23.8142 23.2442 24.8823 23.0063C25.9434 22.7735 26.6121 22.8447 27.0324 22.7805C27.4561 22.7093 27.9771 22.6606 28.427 22.6693C28.8785 22.6693 29.2745 22.8083 30.0352 22.876C30.7924 22.9559 31.0268 23.1417 31.3985 23.3084C31.7823 23.4873 31.9021 23.6488 31.8778 23.8833C31.85 24.116 31.8796 29.545 31.8796 29.545C31.8796 29.545 31.7806 29.6423 31.3898 29.6666ZM34.535 26.0924C34.535 26.0924 34.3075 26.4623 33.9584 27.0737C33.8681 26.5301 33.7448 25.9135 33.7552 25.8354C33.783 25.6895 33.7552 25.4047 33.7552 24.9531C33.7552 24.5016 33.9793 24.2689 34.1443 23.793C34.3127 23.3189 34.9935 23.0445 35.3339 22.8934C35.4103 22.8621 35.5996 22.7996 35.7611 22.751C35.4902 24.5328 34.535 26.0924 34.535 26.0924ZM35.6552 20.6252C34.957 20.62 34.3596 20.6183 34.2901 20.6183C34.021 20.6183 33.4652 20.6738 33.1144 20.8041C32.7688 20.9378 32.5274 21.0455 32.345 21.0177C32.1522 20.9934 31.3985 20.7763 31.1692 20.6651C30.9261 20.5557 30.6309 20.5019 30.4138 20.5314C30.2036 20.5557 30.2314 20.5557 30.0925 20.6582L29.8511 20.8562C29.8511 20.8562 29.4273 20.5262 29.2137 20.5835C28.849 20.6704 28.1439 20.6026 27.7722 20.686C27.3953 20.7659 26.4592 20.8406 26.0859 20.8683C25.7177 20.8961 25.148 20.7537 24.6235 20.646C24.0869 20.5349 23.7395 20.5592 23.7395 20.5592L23.7691 19.9461C23.7934 19.8107 23.8715 19.8107 23.8472 19.4946C23.8264 19.1698 23.7934 18.9875 23.7725 18.529C23.75 18.0722 23.6683 17.7527 23.7239 17.4592C23.7777 17.1656 23.908 16.4189 24.2397 15.2917C24.5558 14.1594 24.7781 13.4942 24.8875 13.2007C24.99 12.9037 25.0456 12.5824 25.3391 12.638C25.6412 12.6936 27.3484 13.1243 27.7757 13.1816C28.2029 13.232 29.3474 13.5619 30.1793 13.8033C30.999 14.0482 31.3985 14.4043 31.6642 14.5345C31.9404 14.6665 32.0376 14.6665 32.0168 14.9392C31.9907 15.2031 31.9021 15.9812 31.8188 16.3581C31.7441 16.7297 31.923 17.6172 31.9734 17.9645C32.0289 18.3136 32.4839 19.7673 32.4839 19.7673C32.4839 19.7673 32.7462 19.5224 32.932 19.0934C33.1265 18.661 33.1265 18.423 33.3332 18.5585C33.5538 18.694 33.9532 19.0413 33.9532 19.0413C33.9532 19.0413 33.9741 18.9058 33.9532 18.7165C33.9341 18.5967 33.988 18.0965 34.0071 17.7318C34.4603 18.2841 35.2974 19.4078 35.6552 20.6252ZM41.3083 16.1844C41.3083 16.1844 39.5455 16.754 38.0901 16.7766C37.0237 16.794 35.8879 16.5231 35.8879 16.5231C35.8879 16.5231 35.0995 16.3494 34.5333 16.6082C34.3266 16.7019 34.1269 16.8791 33.9706 17.0389C33.8751 16.6273 33.7292 15.9847 33.882 15.4741C33.9775 15.1215 33.981 14.967 34.601 14.4095C35.2158 13.8468 35.8306 13.7356 36.1259 13.6644C36.4228 13.5863 37.1384 13.5619 38.3437 13.2181C39.5507 12.8759 39.8459 12.7092 39.8459 12.7092C39.8459 12.7092 40.0318 12.3063 40.2957 12.6571C40.4885 12.9089 41.2492 14.465 41.7251 16.0819C41.4663 16.1392 41.3083 16.1844 41.3083 16.1844ZM40.9244 8.22846C39.9119 5.66679 38.8317 4.67338 38.8317 4.67338C38.8317 4.67338 39.0957 4.39898 39.2832 4.26525C39.4673 4.12979 39.6288 4.16278 39.6288 4.16278C39.6288 4.16278 40.2141 4.37293 42.2166 5.27081C44.2242 6.15828 44.8269 6.96586 45.0439 7.12911C45.2541 7.28715 45.1464 7.47472 45.1464 7.47472C45.1464 7.47472 45.3097 7.36704 45.2854 7.66055C45.2541 7.95753 44.8234 8.38997 44.2068 8.65048C43.5938 8.92488 42.2287 9.39901 41.9369 9.52579C41.6434 9.66647 41.2944 9.17845 40.9244 8.22846ZM50.0596 20.4863C49.9971 20.3074 49.9311 20.1424 49.8634 19.9948C48.9794 18.0792 47.6612 17.1153 47.6612 17.1153C47.6612 17.1153 46.4055 16.0107 44.7817 15.8457C44.4344 15.8093 44.0835 15.8041 43.7414 15.8179H43.7449C43.7015 15.7467 43.4045 14.7898 43.3906 14.7499L43.2881 14.4564C43.2881 14.4564 43.1249 14.5901 43.0658 14.7933C43.0554 14.8402 43.3055 15.7884 43.2916 15.8457C42.8956 15.8787 42.5309 15.9308 42.2235 15.9847C42.1922 15.9083 42.1645 15.8423 42.1575 15.8266C42.0446 15.5019 41.9422 14.9409 41.9161 14.7551C41.8901 14.564 42.0029 14.465 42.0273 14.3226L42.1922 13.8155C42.2391 13.6852 42.2183 13.6852 42.4302 13.7356C42.6421 13.7912 42.9425 13.819 42.9425 13.819C42.9425 13.819 43.0502 13.3362 42.8366 12.8846C42.6212 12.4244 42.5465 12.1569 42.5465 12.1569C42.5465 12.1569 42.5153 12.077 42.9182 11.7575C43.3194 11.4414 44.4743 10.613 44.9814 10.2865C45.4938 9.97039 45.4382 9.99818 45.8967 9.72552C46.3465 9.46848 46.6643 9.1194 46.6643 9.1194C46.6643 9.1194 47.6004 9.97387 48.4531 11.075C49.3059 12.1795 50.5285 13.8937 50.6605 13.8398C50.8029 13.7842 50.664 13.1451 50.8759 13.1173C51.0912 13.0948 51.4681 13.4421 51.7078 13.6887C51.9422 13.9267 52.161 13.9579 52.1333 14.142C52.1055 14.3313 52.2079 14.5953 52.0273 14.5745C51.8328 14.5449 51.8102 14.4112 51.6487 14.4112L51.3014 14.4338L51.1676 14.7863L51.3014 15.2466C51.3187 15.3994 51.4316 15.9708 51.5532 16.3893C51.6939 16.82 51.9075 17.7613 51.9318 17.9732C51.9596 18.1868 51.9839 19.0708 52.0065 19.34C52.0308 19.611 51.9839 20.2779 51.9839 20.2779L51.713 20.4081C51.5046 20.5158 51.2562 20.6773 51.0478 20.6495C50.8325 20.6235 50.4834 20.5071 50.143 20.4828C50.1326 20.4811 50.103 20.4828 50.0596 20.4863ZM52.4511 23.8277C52.432 24.0379 52.2496 24.4391 52.1906 24.703C52.0621 25.3578 51.937 25.7433 51.7234 26.3859L51.6452 26.3477C51.6452 26.3477 51.409 25.8006 51.0513 24.3991C50.8898 23.7652 50.7074 22.8604 50.4938 21.9868C50.7526 21.9156 51.0877 21.801 51.3344 21.761C52.3521 21.603 52.3035 21.2695 52.3035 21.2695C52.3035 21.2695 52.3972 21.5509 52.2531 21.9781C52.1055 22.4071 52.1767 22.9715 52.3121 23.1626C52.4511 23.3536 52.4806 23.6193 52.4511 23.8277Z" fill="#A09744"/>
<path fill-rule="evenodd" clip-rule="evenodd" d="M22.1069 46.2453C22.1069 46.2453 20.5195 45.1772 19.1232 43.1487C18.1941 41.7958 17.6487 39.6562 16.6154 38.437C15.0228 36.5578 13.2513 35.7954 13.2513 35.7954C13.2513 35.7954 13.9443 37.1448 14.6755 39.1786C15.061 40.2449 15.4049 41.8931 15.7783 42.7892C16.2333 43.8816 16.7856 44.8403 16.7856 44.8403C16.7856 44.8403 14.606 44.8889 11.9401 44.2133C9.28465 43.5395 6.10645 41.7628 6.10645 41.7628C6.10645 41.7628 7.59135 45.6287 12.8137 46.9886C16.4608 47.9369 22.1069 46.2453 22.1069 46.2453Z" fill="#026839"/>
<path fill-rule="evenodd" clip-rule="evenodd" d="M14.3697 43.0357C14.3697 43.0357 13.4441 41.4275 12.8501 39.0465C12.4472 37.4365 12.2961 35.0398 11.7681 33.5567C11.0352 31.4986 9.92545 30.5747 9.92545 30.5747C9.92545 30.5747 10.1425 31.9537 10.1721 34.1454C10.1825 34.9617 10.0488 36.0384 10.021 36.8825C9.98102 38.0392 10.4569 39.4285 10.4569 39.4285C10.4569 39.4285 9.78651 38.8815 8.69063 38.2111C7.61386 37.5563 6.12375 36.7835 5.02267 35.9881C3.08448 34.5865 1.67773 32.8151 1.67773 32.8151C1.67773 32.8151 2.49052 37.2073 5.95355 39.9027C10.1009 43.1278 14.3697 43.0357 14.3697 43.0357Z" fill="#026839"/>
<path fill-rule="evenodd" clip-rule="evenodd" d="M8.24602 36.5374C8.24602 36.5374 8.21823 35.2174 8.45442 33.3835C8.63504 31.9802 9.09875 30.2417 9.08138 28.7481C9.04491 25.7332 8.09318 23.5605 8.09318 23.5605C8.09318 23.5605 7.92125 25.0767 7.42975 27.1521C7.24566 27.9249 6.76459 29.415 6.63086 30.0785C6.44329 31.0042 6.38425 32.0167 6.38425 32.0167C6.38425 32.0167 5.79029 31.0945 4.78819 30.1167C4.08482 29.4307 2.9299 28.3053 2.33767 27.5898C0.609633 25.5057 4.17325e-05 24.3212 4.17325e-05 24.3212C4.17325e-05 24.3212 -0.0346929 27.7061 1.90002 30.5734C4.0744 33.7933 8.24602 36.5374 8.24602 36.5374Z" fill="#026839"/>
<path fill-rule="evenodd" clip-rule="evenodd" d="M3.87621 27.0598C4.82273 28.246 5.31943 28.9789 5.31943 28.9789C5.31943 28.9789 5.61989 27.2613 6.36494 25.1599C6.8738 23.7253 7.78558 22.1345 8.1694 20.6947C8.73384 18.5742 8.54974 16.8757 8.54974 16.8757C8.54974 16.8757 6.99364 19.2324 5.81266 21.3026C4.95646 22.8066 4.48233 24.6267 4.48233 24.6267C4.48233 24.6267 3.85364 22.9004 3.02001 21.32C2.56672 20.4638 1.83556 19.5259 1.46217 18.6801C0.856049 17.3081 0.758792 16.0386 0.758792 16.0386C0.758792 16.0386 -0.482967 19.0605 0.454865 21.7194C1.14956 23.6871 2.76992 25.6739 3.87621 27.0598Z" fill="#026839"/>
<path fill-rule="evenodd" clip-rule="evenodd" d="M4.3315 20.8996C4.3315 20.8996 5.01577 19.7256 6.17417 18.2198C6.87407 17.3098 7.96126 16.299 8.56911 15.2934C9.87166 13.133 10.2225 11.1322 10.2225 11.1322C10.2225 11.1322 9.64936 11.8321 8.60732 12.7283C8.00294 13.2476 7.04079 13.812 6.46073 14.4008C5.45343 15.422 4.78826 16.6429 4.78826 16.6429C4.78826 16.6429 4.17172 14.6283 3.9911 12.8412C3.77575 10.7068 3.9911 8.7373 3.9911 8.7373C3.9911 8.7373 1.91224 10.9099 1.99561 13.8693C2.03902 15.4063 2.90218 17.572 3.45793 18.8294C4.03105 20.1215 4.3315 20.8996 4.3315 20.8996Z" fill="#026839"/>
<path fill-rule="evenodd" clip-rule="evenodd" d="M7.25746 12.3133C8.30297 11.4501 9.88165 10.4063 10.8681 9.27225C12.2905 7.63625 12.8063 5.58518 12.8063 5.58518C12.8063 5.58518 11.4638 6.93982 9.95633 7.98012C8.73889 8.81896 7.29567 9.38513 7.29567 9.38513C7.29567 9.38513 7.36166 8.77207 7.4294 7.52336C7.45892 6.9433 7.61002 4.85575 7.75243 4.21664C8.21787 2.11173 9.12097 1.13916 9.12097 1.13916C9.12097 1.13916 6.1859 3.44206 5.35922 6.36497C4.37623 9.83495 5.47384 14.0222 5.47384 14.0222C5.47384 14.0222 6.0678 13.2945 7.25746 12.3133Z" fill="#026839"/>
<path fill-rule="evenodd" clip-rule="evenodd" d="M11.9715 4.82636C12.529 4.20809 13.2636 2.42273 13.6996 1.72804C14.6131 0.272666 14.9726 0 14.9726 0C14.9726 0 12.1365 0.842312 10.5457 2.60335C8.94441 4.37655 8.58838 7.06847 8.58838 7.06847C8.58838 7.06847 10.5387 6.41025 11.9715 4.82636Z" fill="#026839"/>
<path fill-rule="evenodd" clip-rule="evenodd" d="M49.1703 48.5259C46.5566 48.3973 43.8368 47.9041 40.7142 46.968C40.3009 46.8447 36.6537 45.8565 32.9198 46.7405C29.1876 45.8582 25.5387 46.8447 25.1254 46.968C22.0027 47.9041 19.283 48.3973 16.6692 48.5259C12.5567 48.7291 10.3232 47.3101 10.3232 47.3101C10.3232 47.3101 12.5966 50.3703 16.2507 50.959C19.5296 51.4887 24.2309 49.554 24.2309 49.554C24.2309 49.554 27.2007 48.0535 30.1636 47.7912C26.6919 49.6617 23.7256 53.0882 23.7256 53.0882L24.9031 54C24.9031 54 28.3348 49.3386 32.918 48.0135C37.5013 49.3386 40.933 54 40.933 54L42.1105 53.0882C42.1105 53.0882 39.1425 49.6617 35.6725 47.7912C38.6353 48.0535 41.6051 49.554 41.6051 49.554C41.6051 49.554 46.3065 51.4887 49.5854 50.959C53.2412 50.3703 55.5146 47.3101 55.5146 47.3101C55.5146 47.3101 53.2829 48.7291 49.1703 48.5259Z" fill="#026839"/>
<path fill-rule="evenodd" clip-rule="evenodd" d="M49.0559 44.8388C49.0559 44.8388 49.6082 43.8801 50.0632 42.7877C50.4366 41.8933 50.7805 40.2452 51.166 39.1771C51.8989 37.1434 52.5902 35.7939 52.5902 35.7939C52.5902 35.7939 50.8187 36.5564 49.2279 38.4355C48.1928 39.6547 47.6492 41.7961 46.72 43.1472C45.3237 45.1775 43.7363 46.2438 43.7363 46.2438C43.7363 46.2438 49.3807 47.9354 53.0278 46.9854C58.2519 45.6256 59.735 41.7596 59.735 41.7596C59.735 41.7596 56.5568 43.538 53.9031 44.2101C51.2355 44.8892 49.0559 44.8388 49.0559 44.8388Z" fill="#026839"/>
<path fill-rule="evenodd" clip-rule="evenodd" d="M60.8185 35.9866C59.7191 36.782 58.2273 37.5531 57.1522 38.2096C56.0564 38.88 55.386 39.4271 55.386 39.4271C55.386 39.4271 55.8619 38.0377 55.8219 36.881C55.7924 36.037 55.6586 34.9602 55.6708 34.144C55.7003 31.9539 55.9174 30.5732 55.9174 30.5732C55.9174 30.5732 54.8077 31.4989 54.0748 33.5552C53.5451 35.0384 53.394 37.435 52.9928 39.0467C52.3971 41.4278 51.4731 43.036 51.4731 43.036C51.4731 43.036 55.742 43.1298 59.8893 39.9012C63.3523 37.2058 64.1651 32.8136 64.1651 32.8136C64.1651 32.8136 62.7584 34.5851 60.8185 35.9866Z" fill="#026839"/>
<path fill-rule="evenodd" clip-rule="evenodd" d="M63.9409 30.5717C65.8756 27.7061 65.8409 24.3212 65.8409 24.3212C65.8409 24.3212 65.233 25.5074 63.5032 27.5898C62.9128 28.3035 61.7561 29.4307 61.0527 30.1167C60.0506 31.0962 59.4567 32.0167 59.4567 32.0167C59.4567 32.0167 59.3976 31.0024 59.2101 30.0785C59.0763 29.415 58.5953 27.9249 58.4112 27.1521C57.9197 25.0767 57.746 23.5605 57.746 23.5605C57.746 23.5605 56.7925 25.7332 56.7578 28.7464C56.7404 30.24 57.2041 31.9785 57.3848 33.3817C57.621 35.2175 57.5932 36.5356 57.5932 36.5356C57.5932 36.5356 61.7665 33.7933 63.9409 30.5717Z" fill="#026839"/>
<path fill-rule="evenodd" clip-rule="evenodd" d="M61.3588 24.6269C61.3588 24.6269 60.8847 22.8051 60.0285 21.3028C58.8475 19.2309 57.2914 16.8759 57.2914 16.8759C57.2914 16.8759 57.1056 18.5744 57.6717 20.695C58.0556 22.1347 58.9691 23.7255 59.4762 25.1601C60.2212 27.2615 60.5217 28.9791 60.5217 28.9791C60.5217 28.9791 61.0184 28.2462 61.9649 27.06C63.0712 25.6759 64.6916 23.6873 65.3845 21.7214C66.3224 19.0624 65.0806 16.0405 65.0806 16.0405C65.0806 16.0405 64.9833 17.3083 64.3772 18.6821C64.0038 19.5279 63.2709 20.4657 62.8194 21.3219C61.9858 22.9006 61.3588 24.6269 61.3588 24.6269Z" fill="#026839"/>
<path fill-rule="evenodd" clip-rule="evenodd" d="M57.2338 12.7305C56.1918 11.8343 55.6187 11.1344 55.6187 11.1344C55.6187 11.1344 55.9695 13.1351 57.272 15.2956C57.8781 16.3012 58.9653 17.312 59.667 18.222C60.8254 19.7277 61.5096 20.9018 61.5096 20.9018C61.5096 20.9018 61.8118 20.122 62.3832 18.8316C62.9407 17.5742 63.8038 15.4085 63.8455 13.8715C63.9289 10.9121 61.85 8.74121 61.85 8.74121C61.85 8.74121 62.0654 10.7107 61.85 12.8451C61.6711 14.6322 61.0511 16.6468 61.0511 16.6468C61.0511 16.6468 60.386 15.4259 59.3804 14.4047C58.8021 13.8142 57.8399 13.2498 57.2338 12.7305Z" fill="#026839"/>
<path fill-rule="evenodd" clip-rule="evenodd" d="M58.4111 7.52532C58.4788 8.77402 58.5448 9.38709 58.5448 9.38709C58.5448 9.38709 57.1016 8.82091 55.8841 7.98208C54.3767 6.94351 53.0342 5.58713 53.0342 5.58713C53.0342 5.58713 53.55 7.63647 54.9724 9.2742C55.9571 10.4083 57.5375 11.4521 58.583 12.3152C59.7727 13.2982 60.3684 14.0259 60.3684 14.0259C60.3684 14.0259 61.4642 9.83863 60.483 6.36866C59.6563 3.44227 56.7212 1.14111 56.7212 1.14111C56.7212 1.14111 57.6243 2.11368 58.0898 4.21859C58.2287 4.85771 58.3816 6.94525 58.4111 7.52532Z" fill="#026839"/>
<path fill-rule="evenodd" clip-rule="evenodd" d="M52.1422 1.72804C52.5781 2.42273 53.3127 4.20635 53.8719 4.82636C55.3047 6.41025 57.2551 7.06674 57.2551 7.06674C57.2551 7.06674 56.8991 4.37481 55.2978 2.60335C53.707 0.842312 50.8691 0 50.8691 0C50.8691 0 51.2286 0.272666 52.1422 1.72804Z" fill="#026839"/>
<path d="M113.42 4.80566C112.435 4.80566 111.642 5.60108 111.642 6.58407V18.6595H103.029C101.956 18.6595 101.15 19.257 100.806 19.9968L99.2416 22.9162V4.80566H90.1585C89.1773 4.80566 88.3818 5.60108 88.3818 6.58407V43.4634H97.4632C98.4444 43.4634 99.2398 42.668 99.2398 41.6868V28.149H111.638V43.4634H120.721C121.703 43.4634 122.498 42.668 122.498 41.6868V4.80566H113.42Z" fill="#026839"/>
<path d="M151.39 4.80566C150.405 4.80566 149.612 5.60108 149.612 6.58407V18.6595H140.999C139.926 18.6595 139.12 19.257 138.776 19.9968L137.212 22.9162V4.80566H128.13C127.149 4.80566 126.354 5.60108 126.354 6.58407V43.4634H135.435C136.416 43.4634 137.212 42.668 137.212 41.6868V28.149H149.61V43.4634H158.693C159.674 43.4634 160.47 42.668 160.47 41.6868V4.80566H151.39Z" fill="#026839"/>
<path d="M84.6029 41.7124C84.6029 42.6936 83.8075 43.489 82.8245 43.489H73.3438V16.1738C73.3438 15.1926 74.0124 14.6368 75.1222 14.3971L84.6029 13.3325V41.7124Z" fill="#026839"/>
<path d="M73.3438 6.5838C73.3438 5.60255 74.1392 4.80713 75.1222 4.80713H84.6029V9.46155C84.6029 10.4445 83.9777 10.943 82.8245 11.24L73.3438 12.3028V6.5838V6.5838Z" fill="#026839"/>
<path d="M107.872 45.2871H108.674L109.97 47.6282H109.98V45.2871H110.704V49.0853H109.902L108.606 46.7182H108.598V49.0853H107.872V45.2871Z" fill="#A09744"/>
<path d="M73.3438 49.08V45.3096H74.127V46.7458H75.5928V45.3096H76.3761V49.08H75.5928V47.3971H74.127V49.08H73.3438Z" fill="#A09744"/>
<path d="M76.918 45.3096H77.7186V47.6246C77.7186 47.8834 77.7499 48.0727 77.8106 48.1925C77.9062 48.4044 78.1128 48.5104 78.4324 48.5104C78.7502 48.5104 78.9569 48.4044 79.0524 48.1925C79.1132 48.0727 79.1445 47.8834 79.1445 47.6246V45.3096H79.9451V47.6281C79.9451 48.0293 79.8826 48.3419 79.7593 48.5642C79.5283 48.9741 79.0854 49.1773 78.4341 49.1773C77.7829 49.1773 77.34 48.9723 77.1055 48.5642C76.9805 48.3402 76.9197 48.0293 76.9197 47.6281V45.3096H76.918Z" fill="#A09744"/>
<path d="M82.9862 45.3096H84.1203V49.0817H83.3856C83.3856 49.0817 83.3908 46.3221 83.3908 46.2509L82.677 49.0817H81.9112L81.2026 46.2509C81.2026 46.3221 81.2078 49.0817 81.2078 49.0817H80.4731V45.3096H81.6194L82.3054 48.2742L82.9862 45.3096Z" fill="#A09744"/>
<path d="M85.824 45.3096H86.7149L88.0487 49.08H87.1943L86.9459 48.3054H85.5565L85.3012 49.08H84.478L85.824 45.3096ZM85.7719 47.6542H86.7375L86.2599 46.171L85.7719 47.6542Z" fill="#A09744"/>
<path d="M88.4116 45.3096H89.2366L90.7336 47.939V45.3096H91.4683V49.08H90.6798L89.1445 46.4037V49.08H88.4116V45.3096Z" fill="#A09744"/>
<path d="M96.1936 45.3096V45.9765H95.0647V49.08H94.2728V45.9765H93.1387V45.3096H96.1936Z" fill="#A09744"/>
<path d="M97.241 45.3096H98.1319L99.4657 49.08H98.6113L98.3629 48.3054H96.9735L96.7182 49.08H95.895L97.241 45.3096ZM97.1889 47.6542H98.1545L97.6786 46.171L97.1889 47.6542Z" fill="#A09744"/>
<path d="M105.393 45.3096H106.284L107.618 49.08H106.763L106.515 48.3054H105.126L104.87 49.08H104.045L105.393 45.3096ZM105.341 47.6542H106.307L105.831 46.171L105.341 47.6542Z" fill="#A09744"/>
<path d="M101.774 49.08L101.104 47.6663H100.677V49.08H99.8013V45.2939H101.069C101.965 45.2939 102.422 45.6795 102.422 46.4385C102.422 46.8865 102.248 47.2321 101.924 47.4388L101.894 47.4579L102.698 49.08H101.774V49.08ZM100.668 47.0532H101.01C101.371 47.0532 101.555 46.8657 101.555 46.494C101.555 46.1241 101.373 45.9348 101.01 45.9348H100.668V47.0532Z" fill="#A09744"/>
<path d="M92.0396 49.08H92.8228V45.3096H92.2775C92.142 45.3096 92.0413 45.4172 92.0413 45.5736V49.08H92.0396Z" fill="#A09744"/>
<path d="M102.901 49.08H103.683V45.3096H103.138C103.002 45.3096 102.901 45.4172 102.901 45.5736V49.08Z" fill="#A09744"/>
<path d="M118.269 45.3096H119.056V48.4009H120.624V49.08H118.269V45.3096Z" fill="#A09744"/>
<path d="M124.551 45.9765H123.042V46.7771H124.386V47.4318H123.042V48.4009H124.643V49.08H122.271V45.3096H124.551V45.9765Z" fill="#A09744"/>
<path d="M117.78 45.9765H116.27V46.7771H117.616V47.4318H116.27V48.4009H117.872V49.08H115.501V45.3096H117.78V45.9765Z" fill="#A09744"/>
<path d="M125.039 45.3145H127.283V45.9761H125.822V46.8428H127.048V47.4993H125.822V49.0797H125.039V45.3145Z" fill="#A09744"/>
<path d="M114.324 49.08L113.653 47.6663H113.226V49.08H112.351V45.2939H113.618C114.516 45.2939 114.971 45.6795 114.971 46.4385C114.971 46.8865 114.798 47.2321 114.473 47.4388L114.443 47.4579L115.247 49.08H114.324V49.08ZM113.215 47.0532H113.558C113.919 47.0532 114.103 46.8657 114.103 46.494C114.103 46.1241 113.921 45.9348 113.558 45.9348H113.215V47.0532Z" fill="#A09744"/>
<path d="M121.022 49.08H121.805V45.3096H121.26C121.124 45.3096 121.024 45.4172 121.024 45.5736V49.08H121.022Z" fill="#A09744"/>
<path d="M128.78 45.3145H131.024V45.9761H129.563V46.8428H130.789V47.4993H129.563V49.0797H128.78V45.3145Z" fill="#A09744"/>
<path d="M152.261 49.08H153.044V45.3096H152.499C152.363 45.3096 152.261 45.4172 152.261 45.5736V49.08Z" fill="#A09744"/>
<path d="M134.351 48.7517C134.067 49.0452 133.655 49.1911 133.117 49.1911C132.578 49.1911 132.167 49.0452 131.882 48.7517C131.5 48.3922 131.309 47.873 131.309 47.1974C131.309 46.5062 131.5 45.9886 131.882 45.643C132.167 45.3495 132.578 45.2036 133.117 45.2036C133.655 45.2036 134.067 45.3495 134.351 45.643C134.732 45.9886 134.921 46.5079 134.921 47.1974C134.923 47.8747 134.732 48.3922 134.351 48.7517ZM133.86 48.1804C134.044 47.9494 134.134 47.6229 134.134 47.1991C134.134 46.7771 134.042 46.4488 133.86 46.2179C133.676 45.9869 133.429 45.8723 133.117 45.8723C132.804 45.8723 132.556 45.9869 132.37 46.2161C132.184 46.4471 132.092 46.7736 132.092 47.1974C132.092 47.6211 132.184 47.9494 132.37 48.1786C132.556 48.4096 132.804 48.5242 133.117 48.5242C133.429 48.5242 133.677 48.4096 133.86 48.1804Z" fill="#A09744"/>
<path d="M135.32 45.3184H136.121V47.6334C136.121 47.8922 136.152 48.0815 136.213 48.2013C136.309 48.4115 136.515 48.5174 136.835 48.5174C137.153 48.5174 137.357 48.4115 137.453 48.2013C137.514 48.0815 137.545 47.8922 137.545 47.6334V45.3184H138.346V47.6352C138.346 48.0363 138.283 48.3472 138.16 48.5712C137.927 48.9811 137.486 49.1843 136.835 49.1843C136.183 49.1843 135.741 48.9794 135.508 48.5712C135.383 48.3472 135.322 48.0363 135.322 47.6352V45.3184H135.32Z" fill="#A09744"/>
<path d="M138.742 45.3184H139.568L141.064 47.946V45.3184H141.798V49.0871H141.01L139.476 46.4125V49.0871H138.742V45.3184Z" fill="#A09744"/>
<path d="M144.403 45.4C144.667 45.4868 144.883 45.6466 145.046 45.8776C145.178 46.0652 145.267 46.2684 145.315 46.4872C145.362 46.706 145.386 46.9127 145.386 47.1107C145.386 47.6126 145.286 48.0363 145.084 48.3837C144.812 48.8526 144.39 49.0871 143.82 49.0871H142.194V45.3184H143.82C144.053 45.3218 144.249 45.3496 144.403 45.4ZM142.96 45.9731V48.434H143.688C144.06 48.434 144.32 48.2517 144.468 47.8835C144.548 47.682 144.588 47.4424 144.588 47.1645C144.588 46.7807 144.527 46.4854 144.407 46.2805C144.287 46.0756 144.047 45.9714 143.688 45.9714H142.96V45.9731Z" fill="#A09744"/>
<path d="M146.807 45.3184H147.698L149.032 49.0871H148.177L147.929 48.3125H146.541L146.286 49.0871H145.463L146.807 45.3184ZM146.755 47.6629H147.721L147.245 46.1798L146.755 47.6629Z" fill="#A09744"/>
<path d="M151.865 45.3184V45.9853H150.736V49.0871H149.944V45.9853H148.812V45.3184H151.865Z" fill="#A09744"/>
<path d="M156.483 48.7517C156.198 49.0452 155.786 49.1911 155.248 49.1911C154.709 49.1911 154.298 49.0452 154.013 48.7517C153.631 48.3922 153.44 47.873 153.44 47.1974C153.44 46.5062 153.631 45.9886 154.013 45.643C154.298 45.3495 154.709 45.2036 155.248 45.2036C155.786 45.2036 156.198 45.3495 156.483 45.643C156.863 45.9886 157.052 46.5079 157.052 47.1974C157.052 47.8747 156.863 48.3922 156.483 48.7517ZM155.991 48.1804C156.175 47.9494 156.266 47.6229 156.266 47.1991C156.266 46.7771 156.174 46.4488 155.991 46.2179C155.807 45.9869 155.56 45.8723 155.248 45.8723C154.935 45.8723 154.687 45.9869 154.501 46.2161C154.315 46.4471 154.221 46.7736 154.221 47.1974C154.221 47.6211 154.315 47.9494 154.501 48.1786C154.687 48.4096 154.935 48.5242 155.248 48.5242C155.56 48.5242 155.807 48.4096 155.991 48.1804Z" fill="#A09744"/>
<path d="M157.45 45.3184H158.277L159.772 47.946V45.3184H160.507V49.0871H159.718L158.185 46.4125V49.0871H157.45V45.3184Z" fill="#A09744"/>
</svg>
